<svg width="100" height="100" viewBox="0 0 100 100" fill="none" xmlns="http://www.w3.org/2000/svg">
<path d="M0 37.5C0 16.7812 11.9866 0 26.7857 0H28.5714C32.5223 0 35.7143 4.46875 35.7143 10C35.7143 15.5312 32.5223 20 28.5714 20H26.7857C19.8884 20 14.2857 27.8438 14.2857 37.5V47.5C14.2857 49.7091 16.0766 51.5 18.2857 51.5H28.5714C36.4509 51.5 42.8571 48.9688 42.8571 60V80C42.8571 91.0312 36.4509 100 28.5714 100H14.2857C6.40625 100 0 91.0312 0 80V60V37.5ZM57.1429 37.5C57.1429 16.7812 69.1295 0 83.9286 0H85.7143C89.6652 0 92.8571 4.46875 92.8571 10C92.8571 15.5312 89.6652 20 85.7143 20H83.9286C77.0313 20 71.4286 27.8438 71.4286 37.5V47.5C71.4286 49.7091 73.2194 51.5 75.4286 51.5H85.7143C93.5938 51.5 100 48.9688 100 60V80C100 91.0312 93.5938 100 85.7143 100H71.4286C63.5491 100 57.1429 91.0312 57.1429 80V60V37.5Z" fill="#9747FF"/>
</svg>
